<?xml version="1.0" standalone="no"?>
<!DOCTYPE svg PUBLIC "-//W3C//DTD SVG 20010904//EN"
 "http://www.w3.org/TR/2001/REC-SVG-20010904/DTD/svg10.dtd">
<svg version="1.0" xmlns="http://www.w3.org/2000/svg"
 width="512.000000pt" height="512.000000pt" viewBox="0 0 512.000000 512.000000"
 preserveAspectRatio="xMidYMid meet">

<g transform="translate(0.000000,512.000000) scale(0.100000,-0.100000)"
fill="#000000" stroke="none">
<path d="M881 4990 c-383 -214 -420 -250 -617 -611 -64 -118 -137 -249 -161
-292 -51 -87 -61 -137 -43 -201 26 -92 111 -156 209 -156 47 0 78 13 329 139
152 77 298 154 323 171 56 37 114 117 131 183 11 43 20 54 77 94 62 45 65 45
90 30 64 -38 100 -180 81 -321 -17 -119 -50 -208 -162 -430 -166 -330 -217
-473 -240 -668 -21 -175 17 -372 103 -539 44 -84 71 -105 116 -88 32 12 52 37
53 65 0 12 -20 64 -45 115 -100 211 -109 421 -29 658 14 42 86 200 159 351 73
151 145 311 158 355 35 113 50 251 37 350 -12 97 -64 212 -114 251 l-33 27 51
72 c28 40 56 80 62 90 10 17 13 17 63 -10 74 -41 171 -148 215 -237 82 -167
102 -343 66 -588 -69 -466 19 -808 275 -1079 76 -80 140 -129 291 -223 219
-136 379 -266 508 -414 73 -83 176 -229 176 -249 0 -5 -28 -25 -63 -44 -84
-46 -97 -58 -97 -97 0 -23 7 -38 26 -53 36 -29 53 -27 135 15 39 19 73 34 74
32 2 -2 17 -44 34 -93 29 -90 61 -250 61 -310 l0 -32 -72 -7 c-61 -5 -77 -10
-95 -32 -60 -68 -3 -131 107 -118 l60 7 0 -44 c0 -94 -74 -356 -110 -393 -5
-5 -28 2 -54 18 -54 32 -75 33 -110 5 -22 -17 -26 -28 -24 -58 2 -30 11 -42
50 -70 l47 -35 -32 -39 c-43 -55 -148 -141 -237 -193 -41 -24 -77 -44 -80 -44
-3 0 -18 25 -33 55 -31 64 -63 83 -108 65 -15 -7 -33 -25 -39 -41 -11 -25 -9
-37 8 -80 16 -36 18 -51 9 -54 -91 -31 -256 -45 -380 -34 -348 32 -621 266
-692 593 -28 125 -17 302 24 427 36 107 84 199 105 199 7 0 19 -7 26 -16 11
-12 8 -31 -19 -111 -90 -267 -39 -496 151 -667 33 -31 101 -76 149 -101 273
-141 547 -107 749 94 277 275 262 686 -36 972 -114 108 -230 179 -419 254 -66
26 -121 48 -122 49 -1 1 3 21 8 45 20 89 -33 161 -124 169 -51 4 -56 2 -108
-40 -30 -24 -59 -47 -66 -51 -14 -9 -80 19 -181 77 -43 25 -91 46 -105 46 -38
0 -67 -33 -67 -74 0 -42 28 -67 134 -122 42 -21 76 -42 76 -46 0 -3 -63 -59
-140 -124 -77 -66 -144 -130 -151 -146 -6 -16 -9 -49 -6 -75 4 -38 12 -54 41
-80 l35 -32 -25 -57 c-205 -465 -47 -990 368 -1218 154 -85 315 -121 533 -120
139 1 173 4 260 27 420 111 728 454 826 920 17 79 22 137 22 257 0 174 -19
290 -74 447 -43 122 -148 322 -219 418 -114 153 -308 333 -497 462 -46 31 -83
60 -83 65 0 13 95 57 157 73 119 31 233 13 363 -57 88 -47 119 -47 148 2 9 17
33 58 52 91 70 123 184 213 335 265 73 25 93 28 225 28 109 1 165 -4 228 -18
69 -16 86 -17 106 -7 38 21 46 50 34 132 -15 108 -4 327 21 424 20 77 69 187
128 287 26 45 27 49 13 75 -39 69 -100 60 -155 -23 -85 -128 -148 -313 -161
-474 l-7 -79 -99 104 c-263 275 -548 442 -947 555 -124 35 -145 33 -176 -13
-18 -28 -12 -68 13 -90 10 -8 66 -29 127 -46 398 -116 681 -287 908 -548 124
-142 128 -128 -42 -129 -165 0 -239 -15 -358 -69 -90 -42 -155 -86 -216 -148
-29 -30 -49 -43 -51 -35 -36 126 -99 307 -139 402 -70 166 -110 203 -170 156
-43 -34 -42 -50 16 -187 30 -70 67 -162 82 -203 30 -86 77 -261 71 -267 -2 -3
-28 3 -58 12 -167 51 -379 17 -538 -86 l-62 -40 -40 26 c-54 36 -177 154 -215
207 l-32 45 49 23 c72 34 127 72 188 132 170 166 260 417 278 776 l7 133 70
75 c217 233 504 389 834 455 138 27 397 36 543 20 149 -17 321 -55 452 -100
151 -51 328 -127 328 -141 0 -4 -24 -14 -53 -23 -83 -26 -254 -113 -266 -136
-17 -32 -13 -66 12 -89 33 -31 64 -28 153 17 108 53 206 87 322 110 106 22
132 40 132 91 0 21 -10 37 -37 59 -46 38 -345 188 -468 235 -102 39 -104 35
37 77 102 29 138 73 108 130 -26 48 -424 198 -670 253 -183 40 -282 50 -485
50 -155 0 -210 -4 -301 -22 -391 -78 -775 -294 -1026 -580 l-46 -52 -7 30
c-13 60 -78 78 -122 34 -29 -29 -28 -36 2 -204 39 -212 38 -450 -1 -605 -22
-87 -86 -214 -134 -265 l-41 -45 5 130 c3 72 13 168 21 215 83 449 -54 838
-356 1007 -27 16 -49 31 -49 34 0 4 16 55 35 113 19 59 35 121 35 137 0 34
-39 79 -68 79 -11 0 -81 -29 -156 -65 -75 -36 -139 -65 -141 -65 -3 0 -2 18 1
39 5 34 3 43 -19 65 -15 14 -36 26 -49 26 -13 0 -128 -59 -257 -130z m2978
-45 c133 -20 286 -57 415 -102 165 -57 162 -53 65 -100 l-84 -39 -85 17 c-293
61 -635 44 -919 -46 -238 -76 -502 -230 -673 -392 -54 -52 -56 -53 -63 -31
-20 66 -86 88 -131 43 -24 -24 -24 -27 -17 -122 13 -162 8 -408 -11 -513 -47
-266 -154 -437 -323 -518 -43 -20 -78 -31 -83 -26 -4 5 -15 31 -23 59 l-14 50
62 60 c118 114 195 263 236 457 18 82 22 138 23 273 0 94 -3 186 -7 206 -7 33
-3 42 44 105 74 98 239 258 344 332 211 149 451 246 712 286 122 19 400 20
532 1z m-2522 -130 c-20 -41 -56 -106 -80 -143 -45 -69 -162 -202 -178 -202
-20 0 -7 109 24 210 l33 104 114 57 c63 31 117 55 119 53 2 -2 -13 -37 -32
-79z m-337 57 c0 -5 -20 -75 -45 -157 l-45 -148 2 -151 c3 -165 -2 -185 -59
-237 -43 -40 -579 -310 -600 -302 -30 10 -53 35 -53 55 0 18 157 312 286 536
87 151 167 222 394 351 110 62 120 66 120 53z m800 -3238 c-28 -131 -53 -245
-56 -253 -3 -10 -19 1 -50 36 -57 66 -95 89 -182 111 l-70 18 201 171 c111 93
203 167 205 163 1 -4 -20 -115 -48 -246z m361 -14 c58 -25 138 -67 176 -93
317 -211 386 -597 149 -832 -100 -99 -211 -145 -351 -145 -131 0 -259 55 -361
155 -129 126 -166 274 -115 462 11 41 11 41 45 31 49 -15 105 -2 141 35 28 29
34 48 69 212 21 99 42 197 47 217 l10 38 42 -17 c23 -9 90 -37 148 -63z"/>
</g>
</svg>
